
<global>
amp_veltrack=0
ampeg_release=0.75
</global>

<group>
group_label=RR1_0-42
seq_length=4
seq_position=1
xf_cccurve=gain
xfin_hicc1=42
xfout_hicc1=84
xfout_locc1=42

<region>
hivel=127
key=G4
lovel=1
offset=777
sample=3Trombones_staccato_PP_G4_RR1.opus
</region>

<region>
hivel=127
key=G3
lovel=1
offset=477
sample=3Trombones_staccato_PP_G3_RR1.opus
</region>

<region>
hivel=127
key=G2
lovel=1
offset=897
sample=3Trombones_staccato_PP_G2_RR1.opus
</region>

<region>
hivel=127
key=G#4
lovel=1
offset=375
sample=3Trombones_staccato_PP_G#4_RR1.opus
</region>

<region>
hivel=127
key=G#3
lovel=1
offset=622
sample=3Trombones_staccato_PP_G#3_RR1.opus
</region>

<region>
hivel=127
key=G#2
lovel=1
offset=1302
sample=3Trombones_staccato_PP_G#2_RR1.opus
</region>

<region>
hivel=127
key=F4
lovel=1
offset=1429
sample=3Trombones_staccato_PP_F4_RR1.opus
</region>

<region>
hivel=127
key=F3
lovel=1
offset=2727
sample=3Trombones_staccato_PP_F3_RR1.opus
</region>

<region>
hivel=127
key=F2
lovel=1
offset=2138
sample=3Trombones_staccato_PP_F2_RR1.opus
</region>

<region>
hivel=127
key=F#4
lovel=1
offset=1493
sample=3Trombones_staccato_PP_F#4_RR1.opus
</region>

<region>
hivel=127
key=F#3
lovel=1
offset=1287
sample=3Trombones_staccato_PP_F#3_RR1.opus
</region>

<region>
hivel=127
key=F#2
lovel=1
offset=1430
sample=3Trombones_staccato_PP_F#2_RR1.opus
</region>

<region>
hivel=127
key=E4
lovel=1
offset=1014
sample=3Trombones_staccato_PP_E4_RR1.opus
</region>

<region>
hivel=127
key=E3
lovel=1
offset=1826
sample=3Trombones_staccato_PP_E3_RR1.opus
</region>

<region>
hivel=127
key=E2
lovel=1
offset=1470
sample=3Trombones_staccato_PP_E2_RR1.opus
</region>

<region>
hivel=127
key=D4
lovel=1
offset=850
sample=3Trombones_staccato_PP_D4_RR1.opus
</region>

<region>
hivel=127
key=D3
lovel=1
offset=770
sample=3Trombones_staccato_PP_D3_RR1.opus
</region>

<region>
hivel=127
key=D#4
lovel=1
offset=610
sample=3Trombones_staccato_PP_D#4_RR1.opus
</region>

<region>
hivel=127
key=D#3
lovel=1
offset=1231
sample=3Trombones_staccato_PP_D#3_RR1.opus
</region>

<region>
hivel=127
key=C5
lovel=1
offset=677
sample=3Trombones_staccato_PP_C5_RR1.opus
</region>

<region>
hivel=127
key=C4
lovel=1
offset=804
sample=3Trombones_staccato_PP_C4_RR1.opus
</region>

<region>
hivel=127
key=C3
lovel=1
offset=2067
sample=3Trombones_staccato_PP_C3_RR1.opus
</region>

<region>
hivel=127
key=C#4
lovel=1
offset=1734
sample=3Trombones_staccato_PP_C#4_RR1.opus
</region>

<region>
hivel=127
key=C#3
lovel=1
offset=1957
sample=3Trombones_staccato_PP_C#3_RR1.opus
</region>

<region>
hivel=127
key=B4
lovel=1
offset=1275
sample=3Trombones_staccato_PP_B4_RR1.opus
</region>

<region>
hivel=127
key=B3
lovel=1
offset=2393
sample=3Trombones_staccato_PP_B3_RR1.opus
</region>

<region>
hivel=127
key=B2
lovel=1
offset=1061
sample=3Trombones_staccato_PP_B2_RR1.opus
</region>

<region>
hivel=127
key=A4
lovel=1
offset=1376
sample=3Trombones_staccato_PP_A4_RR1.opus
</region>

<region>
hivel=127
key=A3
lovel=1
offset=583
sample=3Trombones_staccato_PP_A3_RR1.opus
</region>

<region>
hivel=127
key=A2
lovel=1
offset=1239
sample=3Trombones_staccato_PP_A2_RR1.opus
</region>

<region>
hivel=127
key=A#4
lovel=1
offset=999
sample=3Trombones_staccato_PP_A#4_RR1.opus
</region>

<region>
hivel=127
key=A#3
lovel=1
offset=11277
sample=3Trombones_staccato_PP_A#3_RR1.opus
</region>

<region>
hivel=127
key=A#2
lovel=1
offset=1122
sample=3Trombones_staccato_PP_A#2_RR1.opus
</region>
</group>

<group>
group_label=RR1_43-84
seq_length=4
seq_position=1
xf_cccurve=gain
xfin_hicc1=84
xfin_locc1=43
xfout_hicc1=125
xfout_locc1=84

<region>
hivel=127
key=G4
lovel=1
offset=174
sample=3Trombones_staccato_MF_G4_RR1.opus
</region>

<region>
hivel=127
key=G3
lovel=1
offset=799
sample=3Trombones_staccato_MF_G3_RR1.opus
</region>

<region>
hivel=127
key=G2
lovel=1
offset=272
sample=3Trombones_staccato_MF_G2_RR1.opus
</region>

<region>
hivel=127
key=G#4
lovel=1
offset=384
sample=3Trombones_staccato_MF_G#4_RR1.opus
</region>

<region>
hivel=127
key=G#3
lovel=1
offset=2257
sample=3Trombones_staccato_MF_G#3_RR1.opus
</region>

<region>
hivel=127
key=G#2
lovel=1
offset=803
sample=3Trombones_staccato_MF_G#2_RR1.opus
</region>

<region>
hivel=127
key=F4
lovel=1
offset=82
sample=3Trombones_staccato_MF_F4_RR1.opus
</region>

<region>
hivel=127
key=F3
lovel=1
offset=1319
sample=3Trombones_staccato_MF_F3_RR1.opus
</region>

<region>
hivel=127
key=F2
lovel=1
offset=170
sample=3Trombones_staccato_MF_F2_RR1.opus
</region>

<region>
hivel=127
key=F#4
lovel=1
offset=967
sample=3Trombones_staccato_MF_F#4_RR1.opus
</region>

<region>
hivel=127
key=F#3
lovel=1
offset=2236
sample=3Trombones_staccato_MF_F#3_RR1.opus
</region>

<region>
hivel=127
key=F#2
lovel=1
offset=1295
sample=3Trombones_staccato_MF_F#2_RR1.opus
</region>

<region>
hivel=127
key=E4
lovel=1
offset=1777
sample=3Trombones_staccato_MF_E4_RR1.opus
</region>

<region>
hivel=127
key=E3
lovel=1
offset=1571
sample=3Trombones_staccato_MF_E3_RR1.opus
</region>

<region>
hivel=127
key=E2
lovel=1
offset=1017
sample=3Trombones_staccato_MF_E2_RR1.opus
</region>

<region>
hivel=127
key=D4
lovel=1
offset=1960
sample=3Trombones_staccato_MF_D4_RR1.opus
</region>

<region>
hivel=127
key=D3
lovel=1
offset=2487
sample=3Trombones_staccato_MF_D3_RR1.opus
</region>

<region>
hivel=127
key=D#4
lovel=1
offset=1193
sample=3Trombones_staccato_MF_D#4_RR1.opus
</region>

<region>
hivel=127
key=D#3
lovel=1
offset=1121
sample=3Trombones_staccato_MF_D#3_RR1.opus
</region>

<region>
hivel=127
key=C5
lovel=1
offset=1452
sample=3Trombones_staccato_MF_C5_RR1.opus
</region>

<region>
hivel=127
key=C4
lovel=1
offset=516
sample=3Trombones_staccato_MF_C4_RR1.opus
</region>

<region>
hivel=127
key=C3
lovel=1
offset=1136
sample=3Trombones_staccato_MF_C3_RR1.opus
</region>

<region>
hivel=127
key=C#4
lovel=1
offset=617
sample=3Trombones_staccato_MF_C#4_RR1.opus
</region>

<region>
hivel=127
key=C#3
lovel=1
offset=2981
sample=3Trombones_staccato_MF_C#3_RR1.opus
</region>

<region>
hivel=127
key=B4
lovel=1
offset=499
sample=3Trombones_staccato_MF_B4_RR1.opus
</region>

<region>
hivel=127
key=B3
lovel=1
offset=842
sample=3Trombones_staccato_MF_B3_RR1.opus
</region>

<region>
hivel=127
key=B2
lovel=1
offset=2288
sample=3Trombones_staccato_MF_B2_RR1.opus
</region>

<region>
hivel=127
key=A4
lovel=1
offset=779
sample=3Trombones_staccato_MF_A4_RR1.opus
</region>

<region>
hivel=127
key=A3
lovel=1
offset=838
sample=3Trombones_staccato_MF_A3_RR1.opus
</region>

<region>
hivel=127
key=A2
lovel=1
offset=861
sample=3Trombones_staccato_MF_A2_RR1.opus
</region>

<region>
hivel=127
key=A#4
lovel=1
offset=1768
sample=3Trombones_staccato_MF_A#4_RR1.opus
</region>

<region>
hivel=127
key=A#3
lovel=1
offset=352
sample=3Trombones_staccato_MF_A#3_RR1.opus
</region>

<region>
hivel=127
key=A#2
lovel=1
offset=2027
sample=3Trombones_staccato_MF_A#2_RR1.opus
</region>
</group>

<group>
group_label=RR1_85-127
seq_length=4
seq_position=1
xf_cccurve=gain
xfin_hicc1=127
xfin_locc1=85
xfout_hicc1=127
xfout_locc1=127

<region>
hivel=127
key=G4
lovel=1
offset=869
sample=3Trombones_staccato_FF_G4_RR1.opus
</region>

<region>
hivel=127
key=G3
lovel=1
sample=3Trombones_staccato_FF_G3_RR1.opus
</region>

<region>
hivel=127
key=G2
lovel=1
offset=36
sample=3Trombones_staccato_FF_G2_RR1.opus
</region>

<region>
hivel=127
key=G#4
lovel=1
offset=1014
sample=3Trombones_staccato_FF_G#4_RR1.opus
</region>

<region>
hivel=127
key=G#3
lovel=1
sample=3Trombones_staccato_FF_G#3_RR1.opus
</region>

<region>
hivel=127
key=G#2
lovel=1
offset=940
sample=3Trombones_staccato_FF_G#2_RR1.opus
</region>

<region>
hivel=127
key=F4
lovel=1
sample=3Trombones_staccato_FF_F4_RR1.opus
</region>

<region>
hivel=127
key=F3
lovel=1
sample=3Trombones_staccato_FF_F3_RR1.opus
</region>

<region>
hivel=127
key=F2
lovel=1
offset=98
sample=3Trombones_staccato_FF_F2_RR1.opus
</region>

<region>
hivel=127
key=F#4
lovel=1
offset=469
sample=3Trombones_staccato_FF_F#4_RR1.opus
</region>

<region>
hivel=127
key=F#3
lovel=1
sample=3Trombones_staccato_FF_F#3_RR1.opus
</region>

<region>
hivel=127
key=F#2
lovel=1
offset=91
sample=3Trombones_staccato_FF_F#2_RR1.opus
</region>

<region>
hivel=127
key=E4
lovel=1
offset=1691
sample=3Trombones_staccato_FF_E4_RR1.opus
</region>

<region>
hivel=127
key=E3
lovel=1
sample=3Trombones_staccato_FF_E3_RR1.opus
</region>

<region>
hivel=127
key=E2
lovel=1
offset=920
sample=3Trombones_staccato_FF_E2_RR1.opus
</region>

<region>
hivel=127
key=D4
lovel=1
offset=21
sample=3Trombones_staccato_FF_D4_RR1.opus
</region>

<region>
hivel=127
key=D3
lovel=1
offset=802
sample=3Trombones_staccato_FF_D3_RR1.opus
</region>

<region>
hivel=127
key=D#4
lovel=1
offset=563
sample=3Trombones_staccato_FF_D#4_RR1.opus
</region>

<region>
hivel=127
key=D#3
lovel=1
sample=3Trombones_staccato_FF_D#3_RR1.opus
</region>

<region>
hivel=127
key=C5
lovel=1
offset=281
sample=3Trombones_staccato_FF_C5_RR1.opus
</region>

<region>
hivel=127
key=C4
lovel=1
offset=910
sample=3Trombones_staccato_FF_C4_RR1.opus
</region>

<region>
hivel=127
key=C3
lovel=1
offset=619
sample=3Trombones_staccato_FF_C3_RR1.opus
</region>

<region>
hivel=127
key=C#4
lovel=1
offset=63
sample=3Trombones_staccato_FF_C#4_RR1.opus
</region>

<region>
hivel=127
key=C#3
lovel=1
offset=576
sample=3Trombones_staccato_FF_C#3_RR1.opus
</region>

<region>
hivel=127
key=B4
lovel=1
offset=798
sample=3Trombones_staccato_FF_B4_RR1.opus
</region>

<region>
hivel=127
key=B3
lovel=1
offset=131
sample=3Trombones_staccato_FF_B3_RR1.opus
</region>

<region>
hivel=127
key=B2
lovel=1
offset=547
sample=3Trombones_staccato_FF_B2_RR1.opus
</region>

<region>
hivel=127
key=A4
lovel=1
offset=959
sample=3Trombones_staccato_FF_A4_RR1.opus
</region>

<region>
hivel=127
key=A3
lovel=1
offset=210
sample=3Trombones_staccato_FF_A3_RR1.opus
</region>

<region>
hivel=127
key=A2
lovel=1
offset=853
sample=3Trombones_staccato_FF_A2_RR1.opus
</region>

<region>
hivel=127
key=A#4
lovel=1
offset=762
sample=3Trombones_staccato_FF_A#4_RR1.opus
</region>

<region>
hivel=127
key=A#3
lovel=1
offset=133
sample=3Trombones_staccato_FF_A#3_RR1.opus
</region>

<region>
hivel=127
key=A#2
lovel=1
sample=3Trombones_staccato_FF_A#2_RR1.opus
</region>
</group>

<group>
group_label=RR2_0-42
seq_length=4
seq_position=2
xf_cccurve=gain
xfin_hicc1=42
xfout_hicc1=84
xfout_locc1=42

<region>
hivel=127
key=G4
lovel=1
offset=9032
sample=3Trombones_staccato_PP_G4_RR2.opus
</region>

<region>
hivel=127
key=G3
lovel=1
offset=10133
sample=3Trombones_staccato_PP_G3_RR2.opus
</region>

<region>
hivel=127
key=G2
lovel=1
offset=10475
sample=3Trombones_staccato_PP_G2_RR2.opus
</region>

<region>
hivel=127
key=G#4
lovel=1
offset=14523
sample=3Trombones_staccato_PP_G#4_RR2.opus
</region>

<region>
hivel=127
key=G#3
lovel=1
offset=1396
sample=3Trombones_staccato_PP_G#3_RR2.opus
</region>

<region>
hivel=127
key=G#2
lovel=1
offset=9101
sample=3Trombones_staccato_PP_G#2_RR2.opus
</region>

<region>
hivel=127
key=F4
lovel=1
sample=3Trombones_staccato_PP_F4_RR2.opus
</region>

<region>
hivel=127
key=F3
lovel=1
offset=1913
sample=3Trombones_staccato_PP_F3_RR2.opus
</region>

<region>
hivel=127
key=F2
lovel=1
offset=11437
sample=3Trombones_staccato_PP_F2_RR2.opus
</region>

<region>
hivel=127
key=F#4
lovel=1
offset=13262
sample=3Trombones_staccato_PP_F#4_RR2.opus
</region>

<region>
hivel=127
key=F#3
lovel=1
offset=11672
sample=3Trombones_staccato_PP_F#3_RR2.opus
</region>

<region>
hivel=127
key=F#2
lovel=1
offset=1093
sample=3Trombones_staccato_PP_F#2_RR2.opus
</region>

<region>
hivel=127
key=E4
lovel=1
offset=1413
sample=3Trombones_staccato_PP_E4_RR2.opus
</region>

<region>
hivel=127
key=E3
lovel=1
offset=11240
sample=3Trombones_staccato_PP_E3_RR2.opus
</region>

<region>
hivel=127
key=E2
lovel=1
offset=2962
sample=3Trombones_staccato_PP_E2_RR2.opus
</region>

<region>
hivel=127
key=D4
lovel=1
offset=11619
sample=3Trombones_staccato_PP_D4_RR2.opus
</region>

<region>
hivel=127
key=D3
lovel=1
offset=1077
sample=3Trombones_staccato_PP_D3_RR2.opus
</region>

<region>
hivel=127
key=D#4
lovel=1
offset=373
sample=3Trombones_staccato_PP_D#4_RR2.opus
</region>

<region>
hivel=127
key=D#3
lovel=1
offset=409
sample=3Trombones_staccato_PP_D#3_RR2.opus
</region>

<region>
hivel=127
key=C5
lovel=1
offset=17
sample=3Trombones_staccato_PP_C5_RR2.opus
</region>

<region>
hivel=127
key=C4
lovel=1
offset=14182
sample=3Trombones_staccato_PP_C4_RR2.opus
</region>

<region>
hivel=127
key=C3
lovel=1
offset=609
sample=3Trombones_staccato_PP_C3_RR2.opus
</region>

<region>
hivel=127
key=C#4
lovel=1
offset=1487
sample=3Trombones_staccato_PP_C#4_RR2.opus
</region>

<region>
hivel=127
key=C#3
lovel=1
offset=529
sample=3Trombones_staccato_PP_C#3_RR2.opus
</region>

<region>
hivel=127
key=B4
lovel=1
offset=12618
sample=3Trombones_staccato_PP_B4_RR2.opus
</region>

<region>
hivel=127
key=B3
lovel=1
offset=1999
sample=3Trombones_staccato_PP_B3_RR2.opus
</region>

<region>
hivel=127
key=B2
lovel=1
offset=644
sample=3Trombones_staccato_PP_B2_RR2.opus
</region>

<region>
hivel=127
key=A4
lovel=1
offset=284
sample=3Trombones_staccato_PP_A4_RR2.opus
</region>

<region>
hivel=127
key=A3
lovel=1
offset=10368
sample=3Trombones_staccato_PP_A3_RR2.opus
</region>

<region>
hivel=127
key=A2
lovel=1
offset=750
sample=3Trombones_staccato_PP_A2_RR2.opus
</region>

<region>
hivel=127
key=A#4
lovel=1
offset=999
sample=3Trombones_staccato_PP_A#4_RR2.opus
</region>

<region>
hivel=127
key=A#3
lovel=1
offset=11137
sample=3Trombones_staccato_PP_A#3_RR2.opus
</region>

<region>
hivel=127
key=A#2
lovel=1
offset=11464
sample=3Trombones_staccato_PP_A#2_RR2.opus
</region>
</group>

<group>
group_label=RR2_85-127
seq_length=4
seq_position=2
xf_cccurve=gain
xfin_hicc1=127
xfin_locc1=85
xfout_hicc1=127
xfout_locc1=127

<region>
hivel=127
key=G4
lovel=1
offset=12270
sample=3Trombones_staccato_FF_G4_RR2.opus
</region>

<region>
hivel=127
key=G3
lovel=1
offset=522
sample=3Trombones_staccato_FF_G3_RR2.opus
</region>

<region>
hivel=127
key=G2
lovel=1
offset=12126
sample=3Trombones_staccato_FF_G2_RR2.opus
</region>

<region>
hivel=127
key=G#4
lovel=1
offset=561
sample=3Trombones_staccato_FF_G#4_RR2.opus
</region>

<region>
hivel=127
key=G#3
lovel=1
offset=12097
sample=3Trombones_staccato_FF_G#3_RR2.opus
</region>

<region>
hivel=127
key=G#2
lovel=1
offset=1429
sample=3Trombones_staccato_FF_G#2_RR2.opus
</region>

<region>
hivel=127
key=F4
lovel=1
offset=1439
sample=3Trombones_staccato_FF_F4_RR2.opus
</region>

<region>
hivel=127
key=F3
lovel=1
sample=3Trombones_staccato_FF_F3_RR2.opus
</region>

<region>
hivel=127
key=F2
lovel=1
offset=9441
sample=3Trombones_staccato_FF_F2_RR2.opus
</region>

<region>
hivel=127
key=F#4
lovel=1
offset=11894
sample=3Trombones_staccato_FF_F#4_RR2.opus
</region>

<region>
hivel=127
key=F#3
lovel=1
offset=10759
sample=3Trombones_staccato_FF_F#3_RR2.opus
</region>

<region>
hivel=127
key=F#2
lovel=1
offset=9657
sample=3Trombones_staccato_FF_F#2_RR2.opus
</region>

<region>
hivel=127
key=E4
lovel=1
offset=12834
sample=3Trombones_staccato_FF_E4_RR2.opus
</region>

<region>
hivel=127
key=E3
lovel=1
offset=10985
sample=3Trombones_staccato_FF_E3_RR2.opus
</region>

<region>
hivel=127
key=E2
lovel=1
offset=696
sample=3Trombones_staccato_FF_E2_RR2.opus
</region>

<region>
hivel=127
key=D4
lovel=1
offset=12277
sample=3Trombones_staccato_FF_D4_RR2.opus
</region>

<region>
hivel=127
key=D3
lovel=1
offset=12878
sample=3Trombones_staccato_FF_D3_RR2.opus
</region>

<region>
hivel=127
key=D#4
lovel=1
offset=6
sample=3Trombones_staccato_FF_D#4_RR2.opus
</region>

<region>
hivel=127
key=D#3
lovel=1
offset=458
sample=3Trombones_staccato_FF_D#3_RR2.opus
</region>

<region>
hivel=127
key=C5
lovel=1
offset=1509
sample=3Trombones_staccato_FF_C5_RR2.opus
</region>

<region>
hivel=127
key=C4
lovel=1
offset=489
sample=3Trombones_staccato_FF_C4_RR2.opus
</region>

<region>
hivel=127
key=C3
lovel=1
offset=650
sample=3Trombones_staccato_FF_C3_RR2.opus
</region>

<region>
hivel=127
key=C#4
lovel=1
offset=549
sample=3Trombones_staccato_FF_C#4_RR2.opus
</region>

<region>
hivel=127
key=C#3
lovel=1
offset=237
sample=3Trombones_staccato_FF_C#3_RR2.opus
</region>

<region>
hivel=127
key=B4
lovel=1
offset=13241
sample=3Trombones_staccato_FF_B4_RR2.opus
</region>

<region>
hivel=127
key=B3
lovel=1
offset=910
sample=3Trombones_staccato_FF_B3_RR2.opus
</region>

<region>
hivel=127
key=B2
lovel=1
offset=617
sample=3Trombones_staccato_FF_B2_RR2.opus
</region>

<region>
hivel=127
key=A4
lovel=1
offset=12747
sample=3Trombones_staccato_FF_A4_RR2.opus
</region>

<region>
hivel=127
key=A3
lovel=1
offset=10697
sample=3Trombones_staccato_FF_A3_RR2.opus
</region>

<region>
hivel=127
key=A2
lovel=1
offset=11464
sample=3Trombones_staccato_FF_A2_RR2.opus
</region>

<region>
hivel=127
key=A#4
lovel=1
offset=11966
sample=3Trombones_staccato_FF_A#4_RR2.opus
</region>

<region>
hivel=127
key=A#3
lovel=1
offset=473
sample=3Trombones_staccato_FF_A#3_RR2.opus
</region>

<region>
hivel=127
key=A#2
lovel=1
offset=1646
sample=3Trombones_staccato_FF_A#2_RR2.opus
</region>
</group>

<group>
group_label=RR2_43-84
seq_length=4
seq_position=2
xf_cccurve=gain
xfin_hicc1=84
xfin_locc1=43
xfout_hicc1=125
xfout_locc1=84

<region>
hivel=127
key=G4
lovel=1
offset=12257
sample=3Trombones_staccato_MF_G4_RR2.opus
</region>

<region>
hivel=127
key=G3
lovel=1
offset=752
sample=3Trombones_staccato_MF_G3_RR2.opus
</region>

<region>
hivel=127
key=G2
lovel=1
offset=1501
sample=3Trombones_staccato_MF_G2_RR2.opus
</region>

<region>
hivel=127
key=G#4
lovel=1
offset=12931
sample=3Trombones_staccato_MF_G#4_RR2.opus
</region>

<region>
hivel=127
key=G#3
lovel=1
offset=9960
sample=3Trombones_staccato_MF_G#3_RR2.opus
</region>

<region>
hivel=127
key=G#2
lovel=1
offset=379
sample=3Trombones_staccato_MF_G#2_RR2.opus
</region>

<region>
hivel=127
key=F4
lovel=1
offset=11482
sample=3Trombones_staccato_MF_F4_RR2.opus
</region>

<region>
hivel=127
key=F3
lovel=1
offset=885
sample=3Trombones_staccato_MF_F3_RR2.opus
</region>

<region>
hivel=127
key=F2
lovel=1
offset=1710
sample=3Trombones_staccato_MF_F2_RR2.opus
</region>

<region>
hivel=127
key=F#4
lovel=1
offset=13388
sample=3Trombones_staccato_MF_F#4_RR2.opus
</region>

<region>
hivel=127
key=F#3
lovel=1
offset=10595
sample=3Trombones_staccato_MF_F#3_RR2.opus
</region>

<region>
hivel=127
key=F#2
lovel=1
offset=10749
sample=3Trombones_staccato_MF_F#2_RR2.opus
</region>

<region>
hivel=127
key=E4
lovel=1
offset=13332
sample=3Trombones_staccato_MF_E4_RR2.opus
</region>

<region>
hivel=127
key=E3
lovel=1
offset=414
sample=3Trombones_staccato_MF_E3_RR2.opus
</region>

<region>
hivel=127
key=E2
lovel=1
offset=1204
sample=3Trombones_staccato_MF_E2_RR2.opus
</region>

<region>
hivel=127
key=D4
lovel=1
offset=13530
sample=3Trombones_staccato_MF_D4_RR2.opus
</region>

<region>
hivel=127
key=D3
lovel=1
offset=1206
sample=3Trombones_staccato_MF_D3_RR2.opus
</region>

<region>
hivel=127
key=D#4
lovel=1
offset=10836
sample=3Trombones_staccato_MF_D#4_RR2.opus
</region>

<region>
hivel=127
key=D#3
lovel=1
offset=720
sample=3Trombones_staccato_MF_D#3_RR2.opus
</region>

<region>
hivel=127
key=C5
lovel=1
sample=3Trombones_staccato_MF_C5_RR2.opus
</region>

<region>
hivel=127
key=C4
lovel=1
offset=244
sample=3Trombones_staccato_MF_C4_RR2.opus
</region>

<region>
hivel=127
key=C3
lovel=1
offset=2062
sample=3Trombones_staccato_MF_C3_RR2.opus
</region>

<region>
hivel=127
key=C#4
lovel=1
offset=1645
sample=3Trombones_staccato_MF_C#4_RR2.opus
</region>

<region>
hivel=127
key=C#3
lovel=1
offset=588
sample=3Trombones_staccato_MF_C#3_RR2.opus
</region>

<region>
hivel=127
key=B4
lovel=1
offset=13824
sample=3Trombones_staccato_MF_B4_RR2.opus
</region>

<region>
hivel=127
key=B3
lovel=1
offset=263
sample=3Trombones_staccato_MF_B3_RR2.opus
</region>

<region>
hivel=127
key=B2
lovel=1
offset=11364
sample=3Trombones_staccato_MF_B2_RR2.opus
</region>

<region>
hivel=127
key=A4
lovel=1
offset=12103
sample=3Trombones_staccato_MF_A4_RR2.opus
</region>

<region>
hivel=127
key=A3
lovel=1
offset=12790
sample=3Trombones_staccato_MF_A3_RR2.opus
</region>

<region>
hivel=127
key=A2
lovel=1
offset=13128
sample=3Trombones_staccato_MF_A2_RR2.opus
</region>

<region>
hivel=127
key=A#4
lovel=1
offset=11274
sample=3Trombones_staccato_MF_A#4_RR2.opus
</region>

<region>
hivel=127
key=A#3
lovel=1
offset=967
sample=3Trombones_staccato_MF_A#3_RR2.opus
</region>

<region>
hivel=127
key=A#2
lovel=1
offset=1533
sample=3Trombones_staccato_MF_A#2_RR2.opus
</region>
</group>

<group>
group_label=RR3_0-42
seq_length=4
seq_position=3
xf_cccurve=gain
xfin_hicc1=42
xfout_hicc1=84
xfout_locc1=42

<region>
hivel=127
key=G4
lovel=1
offset=13754
sample=3Trombones_staccato_PP_G4_RR3.opus
</region>

<region>
hivel=127
key=G3
lovel=1
offset=501
sample=3Trombones_staccato_PP_G3_RR3.opus
</region>

<region>
hivel=127
key=G2
lovel=1
sample=3Trombones_staccato_PP_G2_RR3.opus
</region>

<region>
hivel=127
key=G#4
lovel=1
offset=14020
sample=3Trombones_staccato_PP_G#4_RR3.opus
</region>

<region>
hivel=127
key=G#3
lovel=1
offset=423
sample=3Trombones_staccato_PP_G#3_RR3.opus
</region>

<region>
hivel=127
key=G#2
lovel=1
offset=331
sample=3Trombones_staccato_PP_G#2_RR3.opus
</region>

<region>
hivel=127
key=F4
lovel=1
sample=3Trombones_staccato_PP_F4_RR3.opus
</region>

<region>
hivel=127
key=F3
lovel=1
offset=2732
sample=3Trombones_staccato_PP_F3_RR3.opus
</region>

<region>
hivel=127
key=F2
lovel=1
offset=2057
sample=3Trombones_staccato_PP_F2_RR3.opus
</region>

<region>
hivel=127
key=F#4
lovel=1
sample=3Trombones_staccato_PP_F#4_RR3.opus
</region>

<region>
hivel=127
key=F#3
lovel=1
offset=2378
sample=3Trombones_staccato_PP_F#3_RR3.opus
</region>

<region>
hivel=127
key=F#2
lovel=1
offset=784
sample=3Trombones_staccato_PP_F#2_RR3.opus
</region>

<region>
hivel=127
key=E4
lovel=1
offset=1330
sample=3Trombones_staccato_PP_E4_RR3.opus
</region>

<region>
hivel=127
key=E3
lovel=1
offset=10917
sample=3Trombones_staccato_PP_E3_RR3.opus
</region>

<region>
hivel=127
key=E2
lovel=1
offset=9533
sample=3Trombones_staccato_PP_E2_RR3.opus
</region>

<region>
hivel=127
key=D4
lovel=1
offset=13436
sample=3Trombones_staccato_PP_D4_RR3.opus
</region>

<region>
hivel=127
key=D3
lovel=1
sample=3Trombones_staccato_PP_D3_RR3.opus
</region>

<region>
hivel=127
key=D#4
lovel=1
offset=1696
sample=3Trombones_staccato_PP_D#4_RR3.opus
</region>

<region>
hivel=127
key=D#3
lovel=1
offset=753
sample=3Trombones_staccato_PP_D#3_RR3.opus
</region>

<region>
hivel=127
key=C5
lovel=1
offset=1302
sample=3Trombones_staccato_PP_C5_RR3.opus
</region>

<region>
hivel=127
key=C4
lovel=1
offset=1539
sample=3Trombones_staccato_PP_C4_RR3.opus
</region>

<region>
hivel=127
key=C3
lovel=1
offset=819
sample=3Trombones_staccato_PP_C3_RR3.opus
</region>

<region>
hivel=127
key=C#4
lovel=1
offset=11931
sample=3Trombones_staccato_PP_C#4_RR3.opus
</region>

<region>
hivel=127
key=C#3
lovel=1
offset=569
sample=3Trombones_staccato_PP_C#3_RR3.opus
</region>

<region>
hivel=127
key=B4
lovel=1
sample=3Trombones_staccato_PP_B4_RR3.opus
</region>

<region>
hivel=127
key=B3
lovel=1
offset=1218
sample=3Trombones_staccato_PP_B3_RR3.opus
</region>

<region>
hivel=127
key=B2
lovel=1
offset=10294
sample=3Trombones_staccato_PP_B2_RR3.opus
</region>

<region>
hivel=127
key=A4
lovel=1
offset=452
sample=3Trombones_staccato_PP_A4_RR3.opus
</region>

<region>
hivel=127
key=A3
lovel=1
offset=11858
sample=3Trombones_staccato_PP_A3_RR3.opus
</region>

<region>
hivel=127
key=A2
lovel=1
offset=11385
sample=3Trombones_staccato_PP_A2_RR3.opus
</region>

<region>
hivel=127
key=A#4
lovel=1
offset=3654
sample=3Trombones_staccato_PP_A#4_RR3.opus
</region>

<region>
hivel=127
key=A#3
lovel=1
offset=11642
sample=3Trombones_staccato_PP_A#3_RR3.opus
</region>

<region>
hivel=127
key=A#2
lovel=1
offset=8056
sample=3Trombones_staccato_PP_A#2_RR3.opus
</region>
</group>

<group>
group_label=RR3_85-127
seq_length=4
seq_position=3
xf_cccurve=gain
xfin_hicc1=127
xfin_locc1=85
xfout_hicc1=127
xfout_locc1=127

<region>
hivel=127
key=G4
lovel=1
offset=12121
sample=3Trombones_staccato_FF_G4_RR3.opus
</region>

<region>
hivel=127
key=G3
lovel=1
offset=10423
sample=3Trombones_staccato_FF_G3_RR3.opus
</region>

<region>
hivel=127
key=G2
lovel=1
offset=13467
sample=3Trombones_staccato_FF_G2_RR3.opus
</region>

<region>
hivel=127
key=G#4
lovel=1
offset=12848
sample=3Trombones_staccato_FF_G#4_RR3.opus
</region>

<region>
hivel=127
key=G#3
lovel=1
offset=13147
sample=3Trombones_staccato_FF_G#3_RR3.opus
</region>

<region>
hivel=127
key=G#2
lovel=1
offset=474
sample=3Trombones_staccato_FF_G#2_RR3.opus
</region>

<region>
hivel=127
key=F4
lovel=1
offset=13435
sample=3Trombones_staccato_FF_F4_RR3.opus
</region>

<region>
hivel=127
key=F3
lovel=1
sample=3Trombones_staccato_FF_F3_RR3.opus
</region>

<region>
hivel=127
key=F2
lovel=1
offset=1222
sample=3Trombones_staccato_FF_F2_RR3.opus
</region>

<region>
hivel=127
key=F#4
lovel=1
offset=11896
sample=3Trombones_staccato_FF_F#4_RR3.opus
</region>

<region>
hivel=127
key=F#3
lovel=1
offset=1368
sample=3Trombones_staccato_FF_F#3_RR3.opus
</region>

<region>
hivel=127
key=F#2
lovel=1
offset=606
sample=3Trombones_staccato_FF_F#2_RR3.opus
</region>

<region>
hivel=127
key=E4
lovel=1
offset=14386
sample=3Trombones_staccato_FF_E4_RR3.opus
</region>

<region>
hivel=127
key=E3
lovel=1
offset=10847
sample=3Trombones_staccato_FF_E3_RR3.opus
</region>

<region>
hivel=127
key=E2
lovel=1
offset=713
sample=3Trombones_staccato_FF_E2_RR3.opus
</region>

<region>
hivel=127
key=D4
lovel=1
offset=62
sample=3Trombones_staccato_FF_D4_RR3.opus
</region>

<region>
hivel=127
key=D3
lovel=1
offset=13972
sample=3Trombones_staccato_FF_D3_RR3.opus
</region>

<region>
hivel=127
key=D#4
lovel=1
offset=198
sample=3Trombones_staccato_FF_D#4_RR3.opus
</region>

<region>
hivel=127
key=D#3
lovel=1
sample=3Trombones_staccato_FF_D#3_RR3.opus
</region>

<region>
hivel=127
key=C5
lovel=1
offset=1427
sample=3Trombones_staccato_FF_C5_RR3.opus
</region>

<region>
hivel=127
key=C4
lovel=1
offset=108
sample=3Trombones_staccato_FF_C4_RR3.opus
</region>

<region>
hivel=127
key=C3
lovel=1
offset=410
sample=3Trombones_staccato_FF_C3_RR3.opus
</region>

<region>
hivel=127
key=C#4
lovel=1
offset=735
sample=3Trombones_staccato_FF_C#4_RR3.opus
</region>

<region>
hivel=127
key=C#3
lovel=1
offset=233
sample=3Trombones_staccato_FF_C#3_RR3.opus
</region>

<region>
hivel=127
key=B4
lovel=1
offset=14460
sample=3Trombones_staccato_FF_B4_RR3.opus
</region>

<region>
hivel=127
key=B3
lovel=1
offset=111
sample=3Trombones_staccato_FF_B3_RR3.opus
</region>

<region>
hivel=127
key=B2
lovel=1
offset=12495
sample=3Trombones_staccato_FF_B2_RR3.opus
</region>

<region>
hivel=127
key=A4
lovel=1
offset=12134
sample=3Trombones_staccato_FF_A4_RR3.opus
</region>

<region>
hivel=127
key=A3
lovel=1
offset=10838
sample=3Trombones_staccato_FF_A3_RR3.opus
</region>

<region>
hivel=127
key=A2
lovel=1
offset=13724
sample=3Trombones_staccato_FF_A2_RR3.opus
</region>

<region>
hivel=127
key=A#4
lovel=1
offset=10536
sample=3Trombones_staccato_FF_A#4_RR3.opus
</region>

<region>
hivel=127
key=A#3
lovel=1
sample=3Trombones_staccato_FF_A#3_RR3.opus
</region>

<region>
hivel=127
key=A#2
lovel=1
offset=10854
sample=3Trombones_staccato_FF_A#2_RR3.opus
</region>
</group>

<group>
group_label=RR3_43-84
seq_length=4
seq_position=3
xf_cccurve=gain
xfin_hicc1=84
xfin_locc1=43
xfout_hicc1=125
xfout_locc1=84

<region>
hivel=127
key=G4
lovel=1
offset=12030
sample=3Trombones_staccato_MF_G4_RR3.opus
</region>

<region>
hivel=127
key=G3
lovel=1
offset=799
sample=3Trombones_staccato_MF_G3_RR3.opus
</region>

<region>
hivel=127
key=G2
lovel=1
offset=1020
sample=3Trombones_staccato_MF_G2_RR3.opus
</region>

<region>
hivel=127
key=G#4
lovel=1
offset=1582
sample=3Trombones_staccato_MF_G#4_RR3.opus
</region>

<region>
hivel=127
key=G#3
lovel=1
offset=1587
sample=3Trombones_staccato_MF_G#3_RR3.opus
</region>

<region>
hivel=127
key=G#2
lovel=1
offset=1310
sample=3Trombones_staccato_MF_G#2_RR3.opus
</region>

<region>
hivel=127
key=F4
lovel=1
offset=10632
sample=3Trombones_staccato_MF_F4_RR3.opus
</region>

<region>
hivel=127
key=F3
lovel=1
offset=356
sample=3Trombones_staccato_MF_F3_RR3.opus
</region>

<region>
hivel=127
key=F2
lovel=1
offset=1097
sample=3Trombones_staccato_MF_F2_RR3.opus
</region>

<region>
hivel=127
key=F#4
lovel=1
offset=1151
sample=3Trombones_staccato_MF_F#4_RR3.opus
</region>

<region>
hivel=127
key=F#3
lovel=1
offset=575
sample=3Trombones_staccato_MF_F#3_RR3.opus
</region>

<region>
hivel=127
key=F#2
lovel=1
offset=1015
sample=3Trombones_staccato_MF_F#2_RR3.opus
</region>

<region>
hivel=127
key=E4
lovel=1
offset=14633
sample=3Trombones_staccato_MF_E4_RR3.opus
</region>

<region>
hivel=127
key=E3
lovel=1
offset=911
sample=3Trombones_staccato_MF_E3_RR3.opus
</region>

<region>
hivel=127
key=E2
lovel=1
offset=1193
sample=3Trombones_staccato_MF_E2_RR3.opus
</region>

<region>
hivel=127
key=D4
lovel=1
offset=13336
sample=3Trombones_staccato_MF_D4_RR3.opus
</region>

<region>
hivel=127
key=D3
lovel=1
offset=2544
sample=3Trombones_staccato_MF_D3_RR3.opus
</region>

<region>
hivel=127
key=D#4
lovel=1
offset=156
sample=3Trombones_staccato_MF_D#4_RR3.opus
</region>

<region>
hivel=127
key=D#3
lovel=1
offset=1382
sample=3Trombones_staccato_MF_D#3_RR3.opus
</region>

<region>
hivel=127
key=C5
lovel=1
offset=10659
sample=3Trombones_staccato_MF_C5_RR3.opus
</region>

<region>
hivel=127
key=C4
lovel=1
offset=651
sample=3Trombones_staccato_MF_C4_RR3.opus
</region>

<region>
hivel=127
key=C3
lovel=1
offset=2363
sample=3Trombones_staccato_MF_C3_RR3.opus
</region>

<region>
hivel=127
key=C#4
lovel=1
offset=1658
sample=3Trombones_staccato_MF_C#4_RR3.opus
</region>

<region>
hivel=127
key=C#3
lovel=1
offset=1910
sample=3Trombones_staccato_MF_C#3_RR3.opus
</region>

<region>
hivel=127
key=B4
lovel=1
offset=11970
sample=3Trombones_staccato_MF_B4_RR3.opus
</region>

<region>
hivel=127
key=B3
lovel=1
offset=291
sample=3Trombones_staccato_MF_B3_RR3.opus
</region>

<region>
hivel=127
key=B2
lovel=1
offset=9547
sample=3Trombones_staccato_MF_B2_RR3.opus
</region>

<region>
hivel=127
key=A4
lovel=1
offset=281
sample=3Trombones_staccato_MF_A4_RR3.opus
</region>

<region>
hivel=127
key=A3
lovel=1
offset=1602
sample=3Trombones_staccato_MF_A3_RR3.opus
</region>

<region>
hivel=127
key=A2
lovel=1
offset=13565
sample=3Trombones_staccato_MF_A2_RR3.opus
</region>

<region>
hivel=127
key=A#4
lovel=1
offset=1190
sample=3Trombones_staccato_MF_A#4_RR3.opus
</region>

<region>
hivel=127
key=A#3
lovel=1
offset=717
sample=3Trombones_staccato_MF_A#3_RR3.opus
</region>

<region>
hivel=127
key=A#2
lovel=1
offset=1432
sample=3Trombones_staccato_MF_A#2_RR3.opus
</region>
</group>

<group>
group_label=RR4_0-42
seq_length=4
seq_position=4
xf_cccurve=gain
xfin_hicc1=42
xfout_hicc1=84
xfout_locc1=42

<region>
hivel=127
key=G4
lovel=1
offset=12441
sample=3Trombones_staccato_PP_G4_RR4.opus
</region>

<region>
hivel=127
key=G3
lovel=1
offset=461
sample=3Trombones_staccato_PP_G3_RR4.opus
</region>

<region>
hivel=127
key=G2
lovel=1
offset=912
sample=3Trombones_staccato_PP_G2_RR4.opus
</region>

<region>
hivel=127
key=G#4
lovel=1
offset=14741
sample=3Trombones_staccato_PP_G#4_RR4.opus
</region>

<region>
hivel=127
key=G#3
lovel=1
offset=638
sample=3Trombones_staccato_PP_G#3_RR4.opus
</region>

<region>
hivel=127
key=G#2
lovel=1
offset=2138
sample=3Trombones_staccato_PP_G#2_RR4.opus
</region>

<region>
hivel=127
key=F4
lovel=1
sample=3Trombones_staccato_PP_F4_RR4.opus
</region>

<region>
hivel=127
key=F3
lovel=1
offset=377
sample=3Trombones_staccato_PP_F3_RR4.opus
</region>

<region>
hivel=127
key=F2
lovel=1
offset=344
sample=3Trombones_staccato_PP_F2_RR4.opus
</region>

<region>
hivel=127
key=F#4
lovel=1
offset=14631
sample=3Trombones_staccato_PP_F#4_RR4.opus
</region>

<region>
hivel=127
key=F#3
lovel=1
sample=3Trombones_staccato_PP_F#3_RR4.opus
</region>

<region>
hivel=127
key=F#2
lovel=1
offset=314
sample=3Trombones_staccato_PP_F#2_RR4.opus
</region>

<region>
hivel=127
key=E4
lovel=1
offset=12682
sample=3Trombones_staccato_PP_E4_RR4.opus
</region>

<region>
hivel=127
key=E3
lovel=1
offset=12137
sample=3Trombones_staccato_PP_E3_RR4.opus
</region>

<region>
hivel=127
key=E2
lovel=1
offset=615
sample=3Trombones_staccato_PP_E2_RR4.opus
</region>

<region>
hivel=127
key=D4
lovel=1
offset=1124
sample=3Trombones_staccato_PP_D4_RR4.opus
</region>

<region>
hivel=127
key=D3
lovel=1
offset=521
sample=3Trombones_staccato_PP_D3_RR4.opus
</region>

<region>
hivel=127
key=D#4
lovel=1
offset=12605
sample=3Trombones_staccato_PP_D#4_RR4.opus
</region>

<region>
hivel=127
key=D#3
lovel=1
offset=1098
sample=3Trombones_staccato_PP_D#3_RR4.opus
</region>

<region>
hivel=127
key=C5
lovel=1
offset=2241
sample=3Trombones_staccato_PP_C5_RR4.opus
</region>

<region>
hivel=127
key=C4
lovel=1
offset=12585
sample=3Trombones_staccato_PP_C4_RR4.opus
</region>

<region>
hivel=127
key=C3
lovel=1
sample=3Trombones_staccato_PP_C3_RR4.opus
</region>

<region>
hivel=127
key=C#4
lovel=1
offset=547
sample=3Trombones_staccato_PP_C#4_RR4.opus
</region>

<region>
hivel=127
key=C#3
lovel=1
offset=1246
sample=3Trombones_staccato_PP_C#3_RR4.opus
</region>

<region>
hivel=127
key=B4
lovel=1
offset=12327
sample=3Trombones_staccato_PP_B4_RR4.opus
</region>

<region>
hivel=127
key=B3
lovel=1
offset=10617
sample=3Trombones_staccato_PP_B3_RR4.opus
</region>

<region>
hivel=127
key=B2
lovel=1
offset=1834
sample=3Trombones_staccato_PP_B2_RR4.opus
</region>

<region>
hivel=127
key=A4
lovel=1
offset=1203
sample=3Trombones_staccato_PP_A4_RR4.opus
</region>

<region>
hivel=127
key=A3
lovel=1
offset=638
sample=3Trombones_staccato_PP_A3_RR4.opus
</region>

<region>
hivel=127
key=A2
lovel=1
offset=802
sample=3Trombones_staccato_PP_A2_RR4.opus
</region>

<region>
hivel=127
key=A#4
lovel=1
offset=2894
sample=3Trombones_staccato_PP_A#4_RR4.opus
</region>

<region>
hivel=127
key=A#3
lovel=1
offset=1342
sample=3Trombones_staccato_PP_A#3_RR4.opus
</region>

<region>
hivel=127
key=A#2
lovel=1
offset=1125
sample=3Trombones_staccato_PP_A#2_RR4.opus
</region>
</group>

<group>
group_label=RR4_85-127
seq_length=4
seq_position=4
xf_cccurve=gain
xfin_hicc1=127
xfin_locc1=85
xfout_hicc1=127
xfout_locc1=127

<region>
hivel=127
key=G4
lovel=1
offset=816
sample=3Trombones_staccato_FF_G4_RR4.opus
</region>

<region>
hivel=127
key=G3
lovel=1
offset=511
sample=3Trombones_staccato_FF_G3_RR4.opus
</region>

<region>
hivel=127
key=G2
lovel=1
offset=14170
sample=3Trombones_staccato_FF_G2_RR4.opus
</region>

<region>
hivel=127
key=G#4
lovel=1
offset=518
sample=3Trombones_staccato_FF_G#4_RR4.opus
</region>

<region>
hivel=127
key=G#3
lovel=1
offset=13387
sample=3Trombones_staccato_FF_G#3_RR4.opus
</region>

<region>
hivel=127
key=G#2
lovel=1
offset=13447
sample=3Trombones_staccato_FF_G#2_RR4.opus
</region>

<region>
hivel=127
key=F4
lovel=1
offset=13146
sample=3Trombones_staccato_FF_F4_RR4.opus
</region>

<region>
hivel=127
key=F3
lovel=1
offset=11223
sample=3Trombones_staccato_FF_F3_RR4.opus
</region>

<region>
hivel=127
key=F2
lovel=1
offset=10620
sample=3Trombones_staccato_FF_F2_RR4.opus
</region>

<region>
hivel=127
key=F#4
lovel=1
offset=12958
sample=3Trombones_staccato_FF_F#4_RR4.opus
</region>

<region>
hivel=127
key=F#3
lovel=1
offset=11
sample=3Trombones_staccato_FF_F#3_RR4.opus
</region>

<region>
hivel=127
key=F#2
lovel=1
offset=614
sample=3Trombones_staccato_FF_F#2_RR4.opus
</region>

<region>
hivel=127
key=E4
lovel=1
offset=13951
sample=3Trombones_staccato_FF_E4_RR4.opus
</region>

<region>
hivel=127
key=E3
lovel=1
sample=3Trombones_staccato_FF_E3_RR4.opus
</region>

<region>
hivel=127
key=E2
lovel=1
offset=1293
sample=3Trombones_staccato_FF_E2_RR4.opus
</region>

<region>
hivel=127
key=D4
lovel=1
offset=12560
sample=3Trombones_staccato_FF_D4_RR4.opus
</region>

<region>
hivel=127
key=D3
lovel=1
offset=13889
sample=3Trombones_staccato_FF_D3_RR4.opus
</region>

<region>
hivel=127
key=D#4
lovel=1
offset=506
sample=3Trombones_staccato_FF_D#4_RR4.opus
</region>

<region>
hivel=127
key=D#3
lovel=1
offset=891
sample=3Trombones_staccato_FF_D#3_RR4.opus
</region>

<region>
hivel=127
key=C5
lovel=1
offset=13469
sample=3Trombones_staccato_FF_C5_RR4.opus
</region>

<region>
hivel=127
key=C4
lovel=1
offset=424
sample=3Trombones_staccato_FF_C4_RR4.opus
</region>

<region>
hivel=127
key=C3
lovel=1
offset=1726
sample=3Trombones_staccato_FF_C3_RR4.opus
</region>

<region>
hivel=127
key=C#4
lovel=1
offset=182
sample=3Trombones_staccato_FF_C#4_RR4.opus
</region>

<region>
hivel=127
key=C#3
lovel=1
offset=592
sample=3Trombones_staccato_FF_C#3_RR4.opus
</region>

<region>
hivel=127
key=B4
lovel=1
offset=14811
sample=3Trombones_staccato_FF_B4_RR4.opus
</region>

<region>
hivel=127
key=B3
lovel=1
offset=93
sample=3Trombones_staccato_FF_B3_RR4.opus
</region>

<region>
hivel=127
key=B2
lovel=1
offset=12287
sample=3Trombones_staccato_FF_B2_RR4.opus
</region>

<region>
hivel=127
key=A4
lovel=1
offset=13574
sample=3Trombones_staccato_FF_A4_RR4.opus
</region>

<region>
hivel=127
key=A3
lovel=1
offset=12571
sample=3Trombones_staccato_FF_A3_RR4.opus
</region>

<region>
hivel=127
key=A2
lovel=1
offset=14946
sample=3Trombones_staccato_FF_A2_RR4.opus
</region>

<region>
hivel=127
key=A#4
lovel=1
offset=964
sample=3Trombones_staccato_FF_A#4_RR4.opus
</region>

<region>
hivel=127
key=A#3
lovel=1
offset=315
sample=3Trombones_staccato_FF_A#3_RR4.opus
</region>

<region>
hivel=127
key=A#2
lovel=1
offset=12064
sample=3Trombones_staccato_FF_A#2_RR4.opus
</region>
</group>

<group>
group_label=RR4_43-84
seq_length=4
seq_position=4
xf_cccurve=gain
xfin_hicc1=84
xfin_locc1=43
xfout_hicc1=125
xfout_locc1=84

<region>
hivel=127
key=G4
lovel=1
offset=11281
sample=3Trombones_staccato_MF_G4_RR4.opus
</region>

<region>
hivel=127
key=G3
lovel=1
offset=517
sample=3Trombones_staccato_MF_G3_RR4.opus
</region>

<region>
hivel=127
key=G2
lovel=1
offset=1426
sample=3Trombones_staccato_MF_G2_RR4.opus
</region>

<region>
hivel=127
key=G#4
lovel=1
offset=12283
sample=3Trombones_staccato_MF_G#4_RR4.opus
</region>

<region>
hivel=127
key=G#3
lovel=1
offset=661
sample=3Trombones_staccato_MF_G#3_RR4.opus
</region>

<region>
hivel=127
key=G#2
lovel=1
offset=693
sample=3Trombones_staccato_MF_G#2_RR4.opus
</region>

<region>
hivel=127
key=F4
lovel=1
offset=11692
sample=3Trombones_staccato_MF_F4_RR4.opus
</region>

<region>
hivel=127
key=F3
lovel=1
offset=1436
sample=3Trombones_staccato_MF_F3_RR4.opus
</region>

<region>
hivel=127
key=F2
lovel=1
offset=1296
sample=3Trombones_staccato_MF_F2_RR4.opus
</region>

<region>
hivel=127
key=F#4
lovel=1
sample=3Trombones_staccato_MF_F#4_RR4.opus
</region>

<region>
hivel=127
key=F#3
lovel=1
offset=578
sample=3Trombones_staccato_MF_F#3_RR4.opus
</region>

<region>
hivel=127
key=F#2
lovel=1
offset=567
sample=3Trombones_staccato_MF_F#2_RR4.opus
</region>

<region>
hivel=127
key=E4
lovel=1
offset=13995
sample=3Trombones_staccato_MF_E4_RR4.opus
</region>

<region>
hivel=127
key=E3
lovel=1
offset=2032
sample=3Trombones_staccato_MF_E3_RR4.opus
</region>

<region>
hivel=127
key=E2
lovel=1
offset=808
sample=3Trombones_staccato_MF_E2_RR4.opus
</region>

<region>
hivel=127
key=D4
lovel=1
offset=11504
sample=3Trombones_staccato_MF_D4_RR4.opus
</region>

<region>
hivel=127
key=D3
lovel=1
offset=1415
sample=3Trombones_staccato_MF_D3_RR4.opus
</region>

<region>
hivel=127
key=D#4
lovel=1
offset=1298
sample=3Trombones_staccato_MF_D#4_RR4.opus
</region>

<region>
hivel=127
key=D#3
lovel=1
offset=953
sample=3Trombones_staccato_MF_D#3_RR4.opus
</region>

<region>
hivel=127
key=C5
lovel=1
offset=11049
sample=3Trombones_staccato_MF_C5_RR4.opus
</region>

<region>
hivel=127
key=C4
lovel=1
offset=884
sample=3Trombones_staccato_MF_C4_RR4.opus
</region>

<region>
hivel=127
key=C3
lovel=1
offset=1768
sample=3Trombones_staccato_MF_C3_RR4.opus
</region>

<region>
hivel=127
key=C#4
lovel=1
offset=747
sample=3Trombones_staccato_MF_C#4_RR4.opus
</region>

<region>
hivel=127
key=C#3
lovel=1
offset=1139
sample=3Trombones_staccato_MF_C#3_RR4.opus
</region>

<region>
hivel=127
key=B4
lovel=1
offset=12318
sample=3Trombones_staccato_MF_B4_RR4.opus
</region>

<region>
hivel=127
key=B3
lovel=1
offset=481
sample=3Trombones_staccato_MF_B3_RR4.opus
</region>

<region>
hivel=127
key=B2
lovel=1
offset=1838
sample=3Trombones_staccato_MF_B2_RR4.opus
</region>

<region>
hivel=127
key=A4
lovel=1
offset=1106
sample=3Trombones_staccato_MF_A4_RR4.opus
</region>

<region>
hivel=127
key=A3
lovel=1
offset=151
sample=3Trombones_staccato_MF_A3_RR4.opus
</region>

<region>
hivel=127
key=A2
lovel=1
offset=13562
sample=3Trombones_staccato_MF_A2_RR4.opus
</region>

<region>
hivel=127
key=A#4
lovel=1
offset=153
sample=3Trombones_staccato_MF_A#4_RR4.opus
</region>

<region>
hivel=127
key=A#3
lovel=1
offset=488
sample=3Trombones_staccato_MF_A#3_RR4.opus
</region>

<region>
hivel=127
key=A#2
lovel=1
offset=1400
sample=3Trombones_staccato_MF_A#2_RR4.opus
</region>
</group>